<svg width="250" height="250" viewBox="0 0 250 250" fill="none" xmlns="http://www.w3.org/2000/svg">
<g clip-path="url(#clip0_1_3)">
<path d="M250 125C250 194.036 194.035 250 125 250C55.9644 250 0 194.036 0 125C0 55.9645 55.9644 0 125 0C194.035 0 250 55.9645 250 125Z" fill="#FF808B"/>
<path d="M84.968 67.312L90.856 71.024L55.144 125.04L90.728 180.208L84.968 184.432L45.8 127.856C45.3733 127.088 45.1173 126.277 45.032 125.424C45.032 124.571 45.288 123.675 45.8 122.736L84.968 67.312ZM99.48 184.688L141.592 65.392C141.848 64.7947 142.061 64.4107 142.232 64.24C142.488 63.984 142.957 63.856 143.64 63.856H149.912C150.424 63.856 150.765 63.984 150.936 64.24C151.192 64.496 151.192 64.9227 150.936 65.52L108.824 184.816C108.568 185.499 108.312 185.925 108.056 186.096C107.8 186.267 107.373 186.352 106.776 186.352H100.504C99.9067 186.352 99.5227 186.224 99.352 185.968C99.1813 185.797 99.224 185.371 99.48 184.688ZM165.243 67.312L204.283 122.736C204.88 123.675 205.179 124.571 205.179 125.424C205.179 126.277 204.88 127.088 204.283 127.856L165.243 184.432L159.483 180.208L194.939 125.04L159.355 71.024L165.243 67.312Z" fill="#F7E948"/>
</g>
<defs>
<clipPath id="clip0_1_3">
<rect width="250" height="250" fill="white"/>
</clipPath>
</defs>
</svg>
